<?xml version="1.0" encoding="UTF-8"?>
<svg xmlns="http://www.w3.org/2000/svg" xmlns:xlink="http://www.w3.org/1999/xlink" width="3840" height="2160" viewBox="0 0 3840 2160">
<defs>
<g>
<g id="glyph-0-0">
<path d="M 0.125 -0.140625 C 0.429688 -0.171875 0.617188 -0.230469 0.695312 -0.308594 C 0.769531 -0.390625 0.808594 -0.597656 0.808594 -0.933594 L 0.808594 -4.300781 C 0.808594 -4.582031 0.765625 -4.761719 0.683594 -4.84375 C 0.597656 -4.929688 0.410156 -4.980469 0.125 -5 L 0.125 -5.144531 L 2.285156 -5.144531 L 2.285156 -5 C 2 -4.980469 1.8125 -4.929688 1.726562 -4.84375 C 1.640625 -4.761719 1.597656 -4.582031 1.597656 -4.300781 L 1.597656 -2.789062 L 3.957031 -2.789062 L 3.957031 -4.300781 C 3.957031 -4.582031 3.914062 -4.761719 3.832031 -4.84375 C 3.75 -4.929688 3.5625 -4.980469 3.273438 -5 L 3.273438 -5.144531 L 5.433594 -5.144531 L 5.433594 -5 C 5.148438 -4.980469 4.960938 -4.929688 4.878906 -4.84375 C 4.792969 -4.761719 4.75 -4.582031 4.75 -4.300781 L 4.75 -0.84375 C 4.75 -0.558594 4.792969 -0.378906 4.878906 -0.296875 C 4.964844 -0.21875 5.148438 -0.164062 5.433594 -0.140625 L 5.433594 0 L 3.273438 0 L 3.273438 -0.140625 C 3.578125 -0.171875 3.769531 -0.226562 3.84375 -0.308594 C 3.917969 -0.390625 3.957031 -0.597656 3.957031 -0.933594 L 3.957031 -2.445312 L 1.597656 -2.445312 L 1.597656 -0.84375 C 1.597656 -0.558594 1.640625 -0.378906 1.726562 -0.296875 C 1.8125 -0.214844 2 -0.164062 2.285156 -0.140625 L 2.285156 0 L 0.125 0 Z "/>
</g>
<g id="glyph-0-1">
<path d="M 1.78125 -3.5625 C 2.136719 -3.5625 2.449219 -3.4375 2.71875 -3.191406 C 2.988281 -2.945312 3.121094 -2.59375 3.121094 -2.140625 L 0.710938 -2.140625 C 0.734375 -1.554688 0.867188 -1.125 1.109375 -0.859375 C 1.347656 -0.589844 1.632812 -0.457031 1.964844 -0.457031 C 2.230469 -0.457031 2.453125 -0.523438 2.636719 -0.664062 C 2.816406 -0.804688 2.984375 -1 3.140625 -1.257812 L 3.273438 -1.210938 C 3.167969 -0.890625 2.976562 -0.59375 2.691406 -0.320312 C 2.40625 -0.046875 2.058594 0.0898438 1.644531 0.0898438 C 1.167969 0.0898438 0.800781 -0.0898438 0.542969 -0.449219 C 0.28125 -0.808594 0.152344 -1.222656 0.152344 -1.691406 C 0.152344 -2.199219 0.300781 -2.636719 0.605469 -3.007812 C 0.90625 -3.378906 1.296875 -3.5625 1.78125 -3.5625 Z M 1.5625 -3.285156 C 1.273438 -3.285156 1.050781 -3.15625 0.898438 -2.902344 C 0.820312 -2.765625 0.761719 -2.59375 0.726562 -2.386719 L 2.328125 -2.386719 C 2.300781 -2.636719 2.25 -2.828125 2.183594 -2.949219 C 2.058594 -3.171875 1.851562 -3.285156 1.5625 -3.285156 Z "/>
</g>
<g id="glyph-0-2">
<path d="M 0.160156 -0.105469 C 0.394531 -0.128906 0.554688 -0.175781 0.636719 -0.25 C 0.722656 -0.320312 0.761719 -0.460938 0.761719 -0.671875 L 0.761719 -4.382812 C 0.761719 -4.550781 0.75 -4.664062 0.722656 -4.726562 C 0.671875 -4.832031 0.570312 -4.886719 0.414062 -4.886719 C 0.378906 -4.886719 0.339844 -4.882812 0.296875 -4.875 C 0.257812 -4.867188 0.203125 -4.855469 0.140625 -4.84375 L 0.140625 -4.96875 C 0.480469 -5.058594 0.894531 -5.179688 1.375 -5.332031 C 1.390625 -5.332031 1.402344 -5.324219 1.40625 -5.308594 C 1.410156 -5.292969 1.414062 -5.261719 1.414062 -5.210938 L 1.414062 -0.65625 C 1.414062 -0.4375 1.449219 -0.292969 1.527344 -0.230469 C 1.601562 -0.164062 1.757812 -0.125 1.996094 -0.105469 L 1.996094 0 L 0.160156 0 Z "/>
</g>
<g id="glyph-0-3">
<path d="M 0.199219 -1.761719 C 0.199219 -2.265625 0.359375 -2.691406 0.679688 -3.039062 C 1 -3.386719 1.410156 -3.5625 1.914062 -3.5625 C 2.414062 -3.5625 2.832031 -3.398438 3.160156 -3.070312 C 3.488281 -2.738281 3.652344 -2.300781 3.652344 -1.753906 C 3.652344 -1.25 3.492188 -0.8125 3.175781 -0.441406 C 2.855469 -0.0703125 2.441406 0.117188 1.9375 0.117188 C 1.449219 0.117188 1.039062 -0.0625 0.703125 -0.417969 C 0.367188 -0.773438 0.199219 -1.222656 0.199219 -1.761719 Z M 1.808594 -3.335938 C 1.609375 -3.335938 1.433594 -3.269531 1.289062 -3.136719 C 1.035156 -2.90625 0.90625 -2.507812 0.90625 -1.945312 C 0.90625 -1.492188 1.007812 -1.074219 1.214844 -0.683594 C 1.417969 -0.292969 1.699219 -0.0976562 2.0625 -0.0976562 C 2.347656 -0.0976562 2.5625 -0.230469 2.71875 -0.488281 C 2.871094 -0.75 2.945312 -1.09375 2.945312 -1.515625 C 2.945312 -1.953125 2.847656 -2.367188 2.65625 -2.753906 C 2.460938 -3.140625 2.175781 -3.335938 1.808594 -3.335938 Z "/>
</g>
</g>
</defs>
<g fill="rgb(100%, 85.098039%, 23.921569%)" fill-opacity="1">
<use xlink:href="#glyph-0-0" x="30" y="25.833008"/>
<use xlink:href="#glyph-0-1" x="36" y="25.833008"/>
<use xlink:href="#glyph-0-2" x="39" y="25.833008"/>
<use xlink:href="#glyph-0-2" x="41" y="25.833008"/>
<use xlink:href="#glyph-0-3" x="43" y="25.833008"/>
</g>
</svg>
